<mxfile host="app.diagrams.net" agent="Mozilla/5.0 (Windows NT 10.0; Win64; x64) AppleWebKit/537.36 (KHTML, like Gecko) Chrome/140.0.0.0 Safari/537.36 Edg/140.0.0.0" version="28.2.3">
  <diagram name="Page-1" id="EPEgJQPUxubeNiRThNqO">
    <mxGraphModel dx="2363" dy="2536" grid="1" gridSize="10" guides="1" tooltips="1" connect="1" arrows="1" fold="1" page="1" pageScale="1" pageWidth="827" pageHeight="1169" math="0" shadow="0">
      <root>
        <mxCell id="0" />
        <mxCell id="1" parent="0" />
        <mxCell id="pWjHUEASfxYRlKA8tLEI-1" value="Users" style="swimlane;fontStyle=0;childLayout=stackLayout;horizontal=1;startSize=30;horizontalStack=0;resizeParent=1;resizeParentMax=0;resizeLast=0;collapsible=1;marginBottom=0;whiteSpace=wrap;html=1;fillColor=#d5e8d4;gradientColor=#97d077;strokeColor=#82b366;" parent="1" vertex="1">
          <mxGeometry x="820" y="130" width="140" height="510" as="geometry" />
        </mxCell>
        <mxCell id="pWjHUEASfxYRlKA8tLEI-2" value="id_user" style="text;strokeColor=none;fillColor=none;align=left;verticalAlign=middle;spacingLeft=4;spacingRight=4;overflow=hidden;points=[[0,0.5],[1,0.5]];portConstraint=eastwest;rotatable=0;whiteSpace=wrap;html=1;" parent="pWjHUEASfxYRlKA8tLEI-1" vertex="1">
          <mxGeometry y="30" width="140" height="30" as="geometry" />
        </mxCell>
        <mxCell id="pWjHUEASfxYRlKA8tLEI-3" value="nom" style="text;strokeColor=none;fillColor=none;align=left;verticalAlign=middle;spacingLeft=4;spacingRight=4;overflow=hidden;points=[[0,0.5],[1,0.5]];portConstraint=eastwest;rotatable=0;whiteSpace=wrap;html=1;" parent="pWjHUEASfxYRlKA8tLEI-1" vertex="1">
          <mxGeometry y="60" width="140" height="30" as="geometry" />
        </mxCell>
        <mxCell id="pWjHUEASfxYRlKA8tLEI-4" value="prenom" style="text;strokeColor=none;fillColor=none;align=left;verticalAlign=middle;spacingLeft=4;spacingRight=4;overflow=hidden;points=[[0,0.5],[1,0.5]];portConstraint=eastwest;rotatable=0;whiteSpace=wrap;html=1;" parent="pWjHUEASfxYRlKA8tLEI-1" vertex="1">
          <mxGeometry y="90" width="140" height="30" as="geometry" />
        </mxCell>
        <mxCell id="pWjHUEASfxYRlKA8tLEI-5" value="mail" style="text;strokeColor=none;fillColor=none;align=left;verticalAlign=middle;spacingLeft=4;spacingRight=4;overflow=hidden;points=[[0,0.5],[1,0.5]];portConstraint=eastwest;rotatable=0;whiteSpace=wrap;html=1;" parent="pWjHUEASfxYRlKA8tLEI-1" vertex="1">
          <mxGeometry y="120" width="140" height="30" as="geometry" />
        </mxCell>
        <mxCell id="pWjHUEASfxYRlKA8tLEI-6" value="mdp" style="text;strokeColor=none;fillColor=none;align=left;verticalAlign=middle;spacingLeft=4;spacingRight=4;overflow=hidden;points=[[0,0.5],[1,0.5]];portConstraint=eastwest;rotatable=0;whiteSpace=wrap;html=1;" parent="pWjHUEASfxYRlKA8tLEI-1" vertex="1">
          <mxGeometry y="150" width="140" height="30" as="geometry" />
        </mxCell>
        <mxCell id="pWjHUEASfxYRlKA8tLEI-7" value="role" style="text;strokeColor=none;fillColor=none;align=left;verticalAlign=middle;spacingLeft=4;spacingRight=4;overflow=hidden;points=[[0,0.5],[1,0.5]];portConstraint=eastwest;rotatable=0;whiteSpace=wrap;html=1;" parent="pWjHUEASfxYRlKA8tLEI-1" vertex="1">
          <mxGeometry y="180" width="140" height="30" as="geometry" />
        </mxCell>
        <mxCell id="pWjHUEASfxYRlKA8tLEI-8" value="cv" style="text;strokeColor=none;fillColor=none;align=left;verticalAlign=middle;spacingLeft=4;spacingRight=4;overflow=hidden;points=[[0,0.5],[1,0.5]];portConstraint=eastwest;rotatable=0;whiteSpace=wrap;html=1;" parent="pWjHUEASfxYRlKA8tLEI-1" vertex="1">
          <mxGeometry y="210" width="140" height="30" as="geometry" />
        </mxCell>
        <mxCell id="pWjHUEASfxYRlKA8tLEI-9" value="specialite" style="text;strokeColor=none;fillColor=none;align=left;verticalAlign=middle;spacingLeft=4;spacingRight=4;overflow=hidden;points=[[0,0.5],[1,0.5]];portConstraint=eastwest;rotatable=0;whiteSpace=wrap;html=1;" parent="pWjHUEASfxYRlKA8tLEI-1" vertex="1">
          <mxGeometry y="240" width="140" height="30" as="geometry" />
        </mxCell>
        <mxCell id="pWjHUEASfxYRlKA8tLEI-10" value="date_creation" style="text;strokeColor=none;fillColor=none;align=left;verticalAlign=middle;spacingLeft=4;spacingRight=4;overflow=hidden;points=[[0,0.5],[1,0.5]];portConstraint=eastwest;rotatable=0;whiteSpace=wrap;html=1;" parent="pWjHUEASfxYRlKA8tLEI-1" vertex="1">
          <mxGeometry y="270" width="140" height="30" as="geometry" />
        </mxCell>
        <mxCell id="pWjHUEASfxYRlKA8tLEI-11" value="entreprise" style="text;strokeColor=none;fillColor=none;align=left;verticalAlign=middle;spacingLeft=4;spacingRight=4;overflow=hidden;points=[[0,0.5],[1,0.5]];portConstraint=eastwest;rotatable=0;whiteSpace=wrap;html=1;" parent="pWjHUEASfxYRlKA8tLEI-1" vertex="1">
          <mxGeometry y="300" width="140" height="30" as="geometry" />
        </mxCell>
        <mxCell id="pWjHUEASfxYRlKA8tLEI-12" value="fomation" style="text;strokeColor=none;fillColor=none;align=left;verticalAlign=middle;spacingLeft=4;spacingRight=4;overflow=hidden;points=[[0,0.5],[1,0.5]];portConstraint=eastwest;rotatable=0;whiteSpace=wrap;html=1;" parent="pWjHUEASfxYRlKA8tLEI-1" vertex="1">
          <mxGeometry y="330" width="140" height="30" as="geometry" />
        </mxCell>
        <mxCell id="pWjHUEASfxYRlKA8tLEI-14" value="est_valide" style="text;strokeColor=none;fillColor=none;align=left;verticalAlign=middle;spacingLeft=4;spacingRight=4;overflow=hidden;points=[[0,0.5],[1,0.5]];portConstraint=eastwest;rotatable=0;whiteSpace=wrap;html=1;" parent="pWjHUEASfxYRlKA8tLEI-1" vertex="1">
          <mxGeometry y="360" width="140" height="30" as="geometry" />
        </mxCell>
        <mxCell id="pWjHUEASfxYRlKA8tLEI-29" value="nb_rue_entreprise" style="text;strokeColor=none;fillColor=none;align=left;verticalAlign=middle;spacingLeft=4;spacingRight=4;overflow=hidden;points=[[0,0.5],[1,0.5]];portConstraint=eastwest;rotatable=0;whiteSpace=wrap;html=1;" parent="pWjHUEASfxYRlKA8tLEI-1" vertex="1">
          <mxGeometry y="390" width="140" height="30" as="geometry" />
        </mxCell>
        <mxCell id="p8ZUOmN2BJG1ooWffucN-1" value="rue_entreprise" style="text;strokeColor=none;fillColor=none;align=left;verticalAlign=middle;spacingLeft=4;spacingRight=4;overflow=hidden;points=[[0,0.5],[1,0.5]];portConstraint=eastwest;rotatable=0;whiteSpace=wrap;html=1;" parent="pWjHUEASfxYRlKA8tLEI-1" vertex="1">
          <mxGeometry y="420" width="140" height="30" as="geometry" />
        </mxCell>
        <mxCell id="p8ZUOmN2BJG1ooWffucN-2" value="ville_entreprise" style="text;strokeColor=none;fillColor=none;align=left;verticalAlign=middle;spacingLeft=4;spacingRight=4;overflow=hidden;points=[[0,0.5],[1,0.5]];portConstraint=eastwest;rotatable=0;whiteSpace=wrap;html=1;" parent="pWjHUEASfxYRlKA8tLEI-1" vertex="1">
          <mxGeometry y="450" width="140" height="30" as="geometry" />
        </mxCell>
        <mxCell id="p8ZUOmN2BJG1ooWffucN-4" value="cp_entreprise" style="text;strokeColor=none;fillColor=none;align=left;verticalAlign=middle;spacingLeft=4;spacingRight=4;overflow=hidden;points=[[0,0.5],[1,0.5]];portConstraint=eastwest;rotatable=0;whiteSpace=wrap;html=1;" parent="pWjHUEASfxYRlKA8tLEI-1" vertex="1">
          <mxGeometry y="480" width="140" height="30" as="geometry" />
        </mxCell>
        <mxCell id="pWjHUEASfxYRlKA8tLEI-15" value="Offres" style="swimlane;fontStyle=0;childLayout=stackLayout;horizontal=1;startSize=30;horizontalStack=0;resizeParent=1;resizeParentMax=0;resizeLast=0;collapsible=1;marginBottom=0;whiteSpace=wrap;html=1;fillColor=#f8cecc;gradientColor=#ea6b66;strokeColor=#b85450;" parent="1" vertex="1">
          <mxGeometry x="1420" y="210" width="140" height="300" as="geometry" />
        </mxCell>
        <mxCell id="pWjHUEASfxYRlKA8tLEI-16" value="id_offre" style="text;strokeColor=none;fillColor=none;align=left;verticalAlign=middle;spacingLeft=4;spacingRight=4;overflow=hidden;points=[[0,0.5],[1,0.5]];portConstraint=eastwest;rotatable=0;whiteSpace=wrap;html=1;" parent="pWjHUEASfxYRlKA8tLEI-15" vertex="1">
          <mxGeometry y="30" width="140" height="30" as="geometry" />
        </mxCell>
        <mxCell id="pWjHUEASfxYRlKA8tLEI-17" value="titre" style="text;strokeColor=none;fillColor=none;align=left;verticalAlign=middle;spacingLeft=4;spacingRight=4;overflow=hidden;points=[[0,0.5],[1,0.5]];portConstraint=eastwest;rotatable=0;whiteSpace=wrap;html=1;" parent="pWjHUEASfxYRlKA8tLEI-15" vertex="1">
          <mxGeometry y="60" width="140" height="30" as="geometry" />
        </mxCell>
        <mxCell id="pWjHUEASfxYRlKA8tLEI-18" value="description" style="text;strokeColor=none;fillColor=none;align=left;verticalAlign=middle;spacingLeft=4;spacingRight=4;overflow=hidden;points=[[0,0.5],[1,0.5]];portConstraint=eastwest;rotatable=0;whiteSpace=wrap;html=1;" parent="pWjHUEASfxYRlKA8tLEI-15" vertex="1">
          <mxGeometry y="90" width="140" height="30" as="geometry" />
        </mxCell>
        <mxCell id="pWjHUEASfxYRlKA8tLEI-20" value="salaire (pas obligatoire)" style="text;strokeColor=none;fillColor=none;align=left;verticalAlign=middle;spacingLeft=4;spacingRight=4;overflow=hidden;points=[[0,0.5],[1,0.5]];portConstraint=eastwest;rotatable=0;whiteSpace=wrap;html=1;" parent="pWjHUEASfxYRlKA8tLEI-15" vertex="1">
          <mxGeometry y="120" width="140" height="30" as="geometry" />
        </mxCell>
        <mxCell id="pWjHUEASfxYRlKA8tLEI-21" value="type (alternance /CDD/CDI/stage" style="text;strokeColor=none;fillColor=none;align=left;verticalAlign=middle;spacingLeft=4;spacingRight=4;overflow=hidden;points=[[0,0.5],[1,0.5]];portConstraint=eastwest;rotatable=0;whiteSpace=wrap;html=1;" parent="pWjHUEASfxYRlKA8tLEI-15" vertex="1">
          <mxGeometry y="150" width="140" height="30" as="geometry" />
        </mxCell>
        <mxCell id="pWjHUEASfxYRlKA8tLEI-22" value="formation" style="text;strokeColor=none;fillColor=none;align=left;verticalAlign=middle;spacingLeft=4;spacingRight=4;overflow=hidden;points=[[0,0.5],[1,0.5]];portConstraint=eastwest;rotatable=0;whiteSpace=wrap;html=1;" parent="pWjHUEASfxYRlKA8tLEI-15" vertex="1">
          <mxGeometry y="180" width="140" height="30" as="geometry" />
        </mxCell>
        <mxCell id="pWjHUEASfxYRlKA8tLEI-23" value="date_creation" style="text;strokeColor=none;fillColor=none;align=left;verticalAlign=middle;spacingLeft=4;spacingRight=4;overflow=hidden;points=[[0,0.5],[1,0.5]];portConstraint=eastwest;rotatable=0;whiteSpace=wrap;html=1;" parent="pWjHUEASfxYRlKA8tLEI-15" vertex="1">
          <mxGeometry y="210" width="140" height="30" as="geometry" />
        </mxCell>
        <mxCell id="pWjHUEASfxYRlKA8tLEI-109" value="date_fermeture" style="text;strokeColor=none;fillColor=none;align=left;verticalAlign=middle;spacingLeft=4;spacingRight=4;overflow=hidden;points=[[0,0.5],[1,0.5]];portConstraint=eastwest;rotatable=0;whiteSpace=wrap;html=1;" parent="pWjHUEASfxYRlKA8tLEI-15" vertex="1">
          <mxGeometry y="240" width="140" height="30" as="geometry" />
        </mxCell>
        <mxCell id="p8ZUOmN2BJG1ooWffucN-21" value="pj" style="text;strokeColor=none;fillColor=none;align=left;verticalAlign=middle;spacingLeft=4;spacingRight=4;overflow=hidden;points=[[0,0.5],[1,0.5]];portConstraint=eastwest;rotatable=0;whiteSpace=wrap;html=1;" parent="pWjHUEASfxYRlKA8tLEI-15" vertex="1">
          <mxGeometry y="270" width="140" height="30" as="geometry" />
        </mxCell>
        <mxCell id="pWjHUEASfxYRlKA8tLEI-30" value="postuler" style="ellipse;whiteSpace=wrap;html=1;fillColor=#f5f5f5;gradientColor=#b3b3b3;strokeColor=#666666;" parent="1" vertex="1">
          <mxGeometry x="1110" y="230" width="100" height="50" as="geometry" />
        </mxCell>
        <mxCell id="pWjHUEASfxYRlKA8tLEI-31" value="réer" style="ellipse;whiteSpace=wrap;html=1;fillColor=#f5f5f5;gradientColor=#b3b3b3;strokeColor=#666666;" parent="1" vertex="1">
          <mxGeometry x="1110" y="360" width="100" height="50" as="geometry" />
        </mxCell>
        <mxCell id="pWjHUEASfxYRlKA8tLEI-32" value="" style="endArrow=none;html=1;rounded=0;exitX=1;exitY=0.5;exitDx=0;exitDy=0;entryX=0;entryY=0.5;entryDx=0;entryDy=0;" parent="1" source="pWjHUEASfxYRlKA8tLEI-9" target="pWjHUEASfxYRlKA8tLEI-31" edge="1">
          <mxGeometry width="50" height="50" relative="1" as="geometry">
            <mxPoint x="1000" y="450" as="sourcePoint" />
            <mxPoint x="1050" y="400" as="targetPoint" />
          </mxGeometry>
        </mxCell>
        <mxCell id="pWjHUEASfxYRlKA8tLEI-33" value="" style="endArrow=none;html=1;rounded=0;entryX=-0.019;entryY=0.942;entryDx=0;entryDy=0;entryPerimeter=0;exitX=1;exitY=0.5;exitDx=0;exitDy=0;" parent="1" source="pWjHUEASfxYRlKA8tLEI-31" target="pWjHUEASfxYRlKA8tLEI-21" edge="1">
          <mxGeometry width="50" height="50" relative="1" as="geometry">
            <mxPoint x="1200" y="428" as="sourcePoint" />
            <mxPoint x="1110" y="435" as="targetPoint" />
          </mxGeometry>
        </mxCell>
        <mxCell id="pWjHUEASfxYRlKA8tLEI-34" value="" style="endArrow=none;html=1;rounded=0;exitX=1.019;exitY=0.164;exitDx=0;exitDy=0;entryX=0;entryY=0.5;entryDx=0;entryDy=0;exitPerimeter=0;" parent="1" source="pWjHUEASfxYRlKA8tLEI-5" target="pWjHUEASfxYRlKA8tLEI-30" edge="1">
          <mxGeometry width="50" height="50" relative="1" as="geometry">
            <mxPoint x="970" y="435" as="sourcePoint" />
            <mxPoint x="1110" y="435" as="targetPoint" />
          </mxGeometry>
        </mxCell>
        <mxCell id="pWjHUEASfxYRlKA8tLEI-35" value="" style="endArrow=none;html=1;rounded=0;entryX=0.008;entryY=0.262;entryDx=0;entryDy=0;entryPerimeter=0;" parent="1" target="pWjHUEASfxYRlKA8tLEI-16" edge="1">
          <mxGeometry width="50" height="50" relative="1" as="geometry">
            <mxPoint x="1210" y="250" as="sourcePoint" />
            <mxPoint x="1125" y="253" as="targetPoint" />
          </mxGeometry>
        </mxCell>
        <mxCell id="pWjHUEASfxYRlKA8tLEI-36" value="ContactsEntreprises" style="swimlane;fontStyle=0;childLayout=stackLayout;horizontal=1;startSize=30;horizontalStack=0;resizeParent=1;resizeParentMax=0;resizeLast=0;collapsible=1;marginBottom=0;whiteSpace=wrap;html=1;fillColor=#f8cecc;gradientColor=#ea6b66;strokeColor=#b85450;" parent="1" vertex="1">
          <mxGeometry x="820" y="830" width="140" height="180" as="geometry" />
        </mxCell>
        <mxCell id="pWjHUEASfxYRlKA8tLEI-37" value="id_contact_entreprise" style="text;strokeColor=none;fillColor=none;align=left;verticalAlign=middle;spacingLeft=4;spacingRight=4;overflow=hidden;points=[[0,0.5],[1,0.5]];portConstraint=eastwest;rotatable=0;whiteSpace=wrap;html=1;" parent="pWjHUEASfxYRlKA8tLEI-36" vertex="1">
          <mxGeometry y="30" width="140" height="30" as="geometry" />
        </mxCell>
        <mxCell id="pWjHUEASfxYRlKA8tLEI-38" value="tel" style="text;strokeColor=none;fillColor=none;align=left;verticalAlign=middle;spacingLeft=4;spacingRight=4;overflow=hidden;points=[[0,0.5],[1,0.5]];portConstraint=eastwest;rotatable=0;whiteSpace=wrap;html=1;" parent="pWjHUEASfxYRlKA8tLEI-36" vertex="1">
          <mxGeometry y="60" width="140" height="30" as="geometry" />
        </mxCell>
        <mxCell id="pWjHUEASfxYRlKA8tLEI-39" value="mail" style="text;strokeColor=none;fillColor=none;align=left;verticalAlign=middle;spacingLeft=4;spacingRight=4;overflow=hidden;points=[[0,0.5],[1,0.5]];portConstraint=eastwest;rotatable=0;whiteSpace=wrap;html=1;" parent="pWjHUEASfxYRlKA8tLEI-36" vertex="1">
          <mxGeometry y="90" width="140" height="30" as="geometry" />
        </mxCell>
        <mxCell id="p8ZUOmN2BJG1ooWffucN-31" value="nom" style="text;strokeColor=none;fillColor=none;align=left;verticalAlign=middle;spacingLeft=4;spacingRight=4;overflow=hidden;points=[[0,0.5],[1,0.5]];portConstraint=eastwest;rotatable=0;whiteSpace=wrap;html=1;" parent="pWjHUEASfxYRlKA8tLEI-36" vertex="1">
          <mxGeometry y="120" width="140" height="30" as="geometry" />
        </mxCell>
        <mxCell id="p8ZUOmN2BJG1ooWffucN-32" value="prenom" style="text;strokeColor=none;fillColor=none;align=left;verticalAlign=middle;spacingLeft=4;spacingRight=4;overflow=hidden;points=[[0,0.5],[1,0.5]];portConstraint=eastwest;rotatable=0;whiteSpace=wrap;html=1;" parent="pWjHUEASfxYRlKA8tLEI-36" vertex="1">
          <mxGeometry y="150" width="140" height="30" as="geometry" />
        </mxCell>
        <mxCell id="pWjHUEASfxYRlKA8tLEI-45" value="0,N" style="text;html=1;align=center;verticalAlign=middle;resizable=0;points=[];autosize=1;strokeColor=none;fillColor=none;" parent="1" vertex="1">
          <mxGeometry x="1040" y="248" width="40" height="30" as="geometry" />
        </mxCell>
        <mxCell id="pWjHUEASfxYRlKA8tLEI-46" value="0,N" style="text;html=1;align=center;verticalAlign=middle;resizable=0;points=[];autosize=1;strokeColor=none;fillColor=none;" parent="1" vertex="1">
          <mxGeometry x="1230" y="248" width="40" height="30" as="geometry" />
        </mxCell>
        <mxCell id="pWjHUEASfxYRlKA8tLEI-47" value="0,N" style="text;html=1;align=center;verticalAlign=middle;resizable=0;points=[];autosize=1;strokeColor=none;fillColor=none;" parent="1" vertex="1">
          <mxGeometry x="1020" y="388" width="40" height="30" as="geometry" />
        </mxCell>
        <mxCell id="pWjHUEASfxYRlKA8tLEI-48" value="1,1" style="text;html=1;align=center;verticalAlign=middle;resizable=0;points=[];autosize=1;strokeColor=none;fillColor=none;" parent="1" vertex="1">
          <mxGeometry x="1260" y="388" width="40" height="30" as="geometry" />
        </mxCell>
        <mxCell id="pWjHUEASfxYRlKA8tLEI-49" value="posseder" style="ellipse;whiteSpace=wrap;html=1;fillColor=#f5f5f5;gradientColor=#b3b3b3;strokeColor=#666666;" parent="1" vertex="1">
          <mxGeometry x="840" y="728" width="100" height="50" as="geometry" />
        </mxCell>
        <mxCell id="pWjHUEASfxYRlKA8tLEI-50" value="" style="endArrow=none;html=1;rounded=0;entryX=0.5;entryY=0;entryDx=0;entryDy=0;" parent="1" target="pWjHUEASfxYRlKA8tLEI-49" edge="1">
          <mxGeometry width="50" height="50" relative="1" as="geometry">
            <mxPoint x="890" y="670" as="sourcePoint" />
            <mxPoint x="1110" y="435" as="targetPoint" />
            <Array as="points">
              <mxPoint x="890" y="640" />
              <mxPoint x="890" y="670" />
            </Array>
          </mxGeometry>
        </mxCell>
        <mxCell id="pWjHUEASfxYRlKA8tLEI-51" value="" style="endArrow=none;html=1;rounded=0;exitX=0.5;exitY=1;exitDx=0;exitDy=0;entryX=0.5;entryY=0;entryDx=0;entryDy=0;" parent="1" source="pWjHUEASfxYRlKA8tLEI-49" target="pWjHUEASfxYRlKA8tLEI-36" edge="1">
          <mxGeometry width="50" height="50" relative="1" as="geometry">
            <mxPoint x="900" y="710" as="sourcePoint" />
            <mxPoint x="890" y="770" as="targetPoint" />
          </mxGeometry>
        </mxCell>
        <mxCell id="pWjHUEASfxYRlKA8tLEI-52" value="0,N" style="text;html=1;align=center;verticalAlign=middle;resizable=0;points=[];autosize=1;strokeColor=none;fillColor=none;" parent="1" vertex="1">
          <mxGeometry x="900" y="690" width="40" height="30" as="geometry" />
        </mxCell>
        <mxCell id="pWjHUEASfxYRlKA8tLEI-53" value="1,1" style="text;html=1;align=center;verticalAlign=middle;resizable=0;points=[];autosize=1;strokeColor=none;fillColor=none;" parent="1" vertex="1">
          <mxGeometry x="900" y="790" width="40" height="30" as="geometry" />
        </mxCell>
        <mxCell id="pWjHUEASfxYRlKA8tLEI-54" value="Etablissements" style="swimlane;fontStyle=0;childLayout=stackLayout;horizontal=1;startSize=30;horizontalStack=0;resizeParent=1;resizeParentMax=0;resizeLast=0;collapsible=1;marginBottom=0;whiteSpace=wrap;html=1;fillColor=#f8cecc;gradientColor=#ea6b66;strokeColor=#b85450;" parent="1" vertex="1">
          <mxGeometry x="1120" y="650" width="140" height="240" as="geometry" />
        </mxCell>
        <mxCell id="pWjHUEASfxYRlKA8tLEI-55" value="id_etablissement" style="text;strokeColor=none;fillColor=none;align=left;verticalAlign=middle;spacingLeft=4;spacingRight=4;overflow=hidden;points=[[0,0.5],[1,0.5]];portConstraint=eastwest;rotatable=0;whiteSpace=wrap;html=1;" parent="pWjHUEASfxYRlKA8tLEI-54" vertex="1">
          <mxGeometry y="30" width="140" height="30" as="geometry" />
        </mxCell>
        <mxCell id="pWjHUEASfxYRlKA8tLEI-57" value="mail" style="text;strokeColor=none;fillColor=none;align=left;verticalAlign=middle;spacingLeft=4;spacingRight=4;overflow=hidden;points=[[0,0.5],[1,0.5]];portConstraint=eastwest;rotatable=0;whiteSpace=wrap;html=1;" parent="pWjHUEASfxYRlKA8tLEI-54" vertex="1">
          <mxGeometry y="60" width="140" height="30" as="geometry" />
        </mxCell>
        <mxCell id="pWjHUEASfxYRlKA8tLEI-58" value="tel" style="text;strokeColor=none;fillColor=none;align=left;verticalAlign=middle;spacingLeft=4;spacingRight=4;overflow=hidden;points=[[0,0.5],[1,0.5]];portConstraint=eastwest;rotatable=0;whiteSpace=wrap;html=1;" parent="pWjHUEASfxYRlKA8tLEI-54" vertex="1">
          <mxGeometry y="90" width="140" height="30" as="geometry" />
        </mxCell>
        <mxCell id="p8ZUOmN2BJG1ooWffucN-39" value="nb_rue" style="text;strokeColor=none;fillColor=none;align=left;verticalAlign=middle;spacingLeft=4;spacingRight=4;overflow=hidden;points=[[0,0.5],[1,0.5]];portConstraint=eastwest;rotatable=0;whiteSpace=wrap;html=1;" parent="pWjHUEASfxYRlKA8tLEI-54" vertex="1">
          <mxGeometry y="120" width="140" height="30" as="geometry" />
        </mxCell>
        <mxCell id="p8ZUOmN2BJG1ooWffucN-40" value="rue" style="text;strokeColor=none;fillColor=none;align=left;verticalAlign=middle;spacingLeft=4;spacingRight=4;overflow=hidden;points=[[0,0.5],[1,0.5]];portConstraint=eastwest;rotatable=0;whiteSpace=wrap;html=1;" parent="pWjHUEASfxYRlKA8tLEI-54" vertex="1">
          <mxGeometry y="150" width="140" height="30" as="geometry" />
        </mxCell>
        <mxCell id="p8ZUOmN2BJG1ooWffucN-41" value="ville" style="text;strokeColor=none;fillColor=none;align=left;verticalAlign=middle;spacingLeft=4;spacingRight=4;overflow=hidden;points=[[0,0.5],[1,0.5]];portConstraint=eastwest;rotatable=0;whiteSpace=wrap;html=1;" parent="pWjHUEASfxYRlKA8tLEI-54" vertex="1">
          <mxGeometry y="180" width="140" height="30" as="geometry" />
        </mxCell>
        <mxCell id="p8ZUOmN2BJG1ooWffucN-42" value="cp" style="text;strokeColor=none;fillColor=none;align=left;verticalAlign=middle;spacingLeft=4;spacingRight=4;overflow=hidden;points=[[0,0.5],[1,0.5]];portConstraint=eastwest;rotatable=0;whiteSpace=wrap;html=1;" parent="pWjHUEASfxYRlKA8tLEI-54" vertex="1">
          <mxGeometry y="210" width="140" height="30" as="geometry" />
        </mxCell>
        <mxCell id="pWjHUEASfxYRlKA8tLEI-59" value="correspond" style="ellipse;whiteSpace=wrap;html=1;fillColor=#f5f5f5;gradientColor=#b3b3b3;strokeColor=#666666;" parent="1" vertex="1">
          <mxGeometry x="1141" y="510" width="100" height="50" as="geometry" />
        </mxCell>
        <mxCell id="pWjHUEASfxYRlKA8tLEI-60" value="" style="endArrow=none;html=1;rounded=0;exitX=1;exitY=0.5;exitDx=0;exitDy=0;entryX=0;entryY=0.5;entryDx=0;entryDy=0;" parent="1" source="pWjHUEASfxYRlKA8tLEI-29" target="pWjHUEASfxYRlKA8tLEI-59" edge="1">
          <mxGeometry width="50" height="50" relative="1" as="geometry">
            <mxPoint x="970" y="435" as="sourcePoint" />
            <mxPoint x="1110" y="435" as="targetPoint" />
          </mxGeometry>
        </mxCell>
        <mxCell id="pWjHUEASfxYRlKA8tLEI-61" value="" style="endArrow=none;html=1;rounded=0;exitX=0.5;exitY=0;exitDx=0;exitDy=0;entryX=0.5;entryY=1;entryDx=0;entryDy=0;" parent="1" source="pWjHUEASfxYRlKA8tLEI-54" target="pWjHUEASfxYRlKA8tLEI-59" edge="1">
          <mxGeometry width="50" height="50" relative="1" as="geometry">
            <mxPoint x="970" y="585" as="sourcePoint" />
            <mxPoint x="1150" y="585" as="targetPoint" />
          </mxGeometry>
        </mxCell>
        <mxCell id="pWjHUEASfxYRlKA8tLEI-62" value="0,1" style="text;html=1;align=center;verticalAlign=middle;resizable=0;points=[];autosize=1;strokeColor=none;fillColor=none;" parent="1" vertex="1">
          <mxGeometry x="1050" y="548" width="40" height="30" as="geometry" />
        </mxCell>
        <mxCell id="pWjHUEASfxYRlKA8tLEI-63" value="1,N" style="text;html=1;align=center;verticalAlign=middle;resizable=0;points=[];autosize=1;strokeColor=none;fillColor=none;" parent="1" vertex="1">
          <mxGeometry x="1190" y="608" width="40" height="30" as="geometry" />
        </mxCell>
        <mxCell id="pWjHUEASfxYRlKA8tLEI-64" value="Evenements" style="swimlane;fontStyle=0;childLayout=stackLayout;horizontal=1;startSize=30;horizontalStack=0;resizeParent=1;resizeParentMax=0;resizeLast=0;collapsible=1;marginBottom=0;whiteSpace=wrap;html=1;fillColor=#f8cecc;gradientColor=#ea6b66;strokeColor=#b85450;" parent="1" vertex="1">
          <mxGeometry x="827" y="-302" width="140" height="300" as="geometry" />
        </mxCell>
        <mxCell id="pWjHUEASfxYRlKA8tLEI-65" value="id_evenement" style="text;strokeColor=none;fillColor=none;align=left;verticalAlign=middle;spacingLeft=4;spacingRight=4;overflow=hidden;points=[[0,0.5],[1,0.5]];portConstraint=eastwest;rotatable=0;whiteSpace=wrap;html=1;" parent="pWjHUEASfxYRlKA8tLEI-64" vertex="1">
          <mxGeometry y="30" width="140" height="30" as="geometry" />
        </mxCell>
        <mxCell id="pWjHUEASfxYRlKA8tLEI-66" value="titre" style="text;strokeColor=none;fillColor=none;align=left;verticalAlign=middle;spacingLeft=4;spacingRight=4;overflow=hidden;points=[[0,0.5],[1,0.5]];portConstraint=eastwest;rotatable=0;whiteSpace=wrap;html=1;" parent="pWjHUEASfxYRlKA8tLEI-64" vertex="1">
          <mxGeometry y="60" width="140" height="30" as="geometry" />
        </mxCell>
        <mxCell id="pWjHUEASfxYRlKA8tLEI-67" value="description" style="text;strokeColor=none;fillColor=none;align=left;verticalAlign=middle;spacingLeft=4;spacingRight=4;overflow=hidden;points=[[0,0.5],[1,0.5]];portConstraint=eastwest;rotatable=0;whiteSpace=wrap;html=1;" parent="pWjHUEASfxYRlKA8tLEI-64" vertex="1">
          <mxGeometry y="90" width="140" height="30" as="geometry" />
        </mxCell>
        <mxCell id="pWjHUEASfxYRlKA8tLEI-69" value="nb_places" style="text;strokeColor=none;fillColor=none;align=left;verticalAlign=middle;spacingLeft=4;spacingRight=4;overflow=hidden;points=[[0,0.5],[1,0.5]];portConstraint=eastwest;rotatable=0;whiteSpace=wrap;html=1;" parent="pWjHUEASfxYRlKA8tLEI-64" vertex="1">
          <mxGeometry y="120" width="140" height="30" as="geometry" />
        </mxCell>
        <mxCell id="pWjHUEASfxYRlKA8tLEI-70" value="nb_rue" style="text;strokeColor=none;fillColor=none;align=left;verticalAlign=middle;spacingLeft=4;spacingRight=4;overflow=hidden;points=[[0,0.5],[1,0.5]];portConstraint=eastwest;rotatable=0;whiteSpace=wrap;html=1;" parent="pWjHUEASfxYRlKA8tLEI-64" vertex="1">
          <mxGeometry y="150" width="140" height="30" as="geometry" />
        </mxCell>
        <mxCell id="p8ZUOmN2BJG1ooWffucN-5" value="rue" style="text;strokeColor=none;fillColor=none;align=left;verticalAlign=middle;spacingLeft=4;spacingRight=4;overflow=hidden;points=[[0,0.5],[1,0.5]];portConstraint=eastwest;rotatable=0;whiteSpace=wrap;html=1;" parent="pWjHUEASfxYRlKA8tLEI-64" vertex="1">
          <mxGeometry y="180" width="140" height="30" as="geometry" />
        </mxCell>
        <mxCell id="p8ZUOmN2BJG1ooWffucN-6" value="ville" style="text;strokeColor=none;fillColor=none;align=left;verticalAlign=middle;spacingLeft=4;spacingRight=4;overflow=hidden;points=[[0,0.5],[1,0.5]];portConstraint=eastwest;rotatable=0;whiteSpace=wrap;html=1;" parent="pWjHUEASfxYRlKA8tLEI-64" vertex="1">
          <mxGeometry y="210" width="140" height="30" as="geometry" />
        </mxCell>
        <mxCell id="p8ZUOmN2BJG1ooWffucN-7" value="cp" style="text;strokeColor=none;fillColor=none;align=left;verticalAlign=middle;spacingLeft=4;spacingRight=4;overflow=hidden;points=[[0,0.5],[1,0.5]];portConstraint=eastwest;rotatable=0;whiteSpace=wrap;html=1;" parent="pWjHUEASfxYRlKA8tLEI-64" vertex="1">
          <mxGeometry y="240" width="140" height="30" as="geometry" />
        </mxCell>
        <mxCell id="p8ZUOmN2BJG1ooWffucN-48" value="est_valide" style="text;strokeColor=none;fillColor=none;align=left;verticalAlign=middle;spacingLeft=4;spacingRight=4;overflow=hidden;points=[[0,0.5],[1,0.5]];portConstraint=eastwest;rotatable=0;whiteSpace=wrap;html=1;" parent="pWjHUEASfxYRlKA8tLEI-64" vertex="1">
          <mxGeometry y="270" width="140" height="30" as="geometry" />
        </mxCell>
        <mxCell id="pWjHUEASfxYRlKA8tLEI-71" value="inscrit" style="ellipse;whiteSpace=wrap;html=1;fillColor=#f5f5f5;gradientColor=#b3b3b3;strokeColor=#666666;" parent="1" vertex="1">
          <mxGeometry x="770" y="50" width="100" height="50" as="geometry" />
        </mxCell>
        <mxCell id="pWjHUEASfxYRlKA8tLEI-72" value="gere" style="ellipse;whiteSpace=wrap;html=1;fillColor=#f5f5f5;gradientColor=#b3b3b3;strokeColor=#666666;" parent="1" vertex="1">
          <mxGeometry x="910" y="50" width="100" height="50" as="geometry" />
        </mxCell>
        <mxCell id="pWjHUEASfxYRlKA8tLEI-73" value="" style="endArrow=none;html=1;rounded=0;exitX=0.25;exitY=0;exitDx=0;exitDy=0;entryX=0.5;entryY=1;entryDx=0;entryDy=0;" parent="1" source="pWjHUEASfxYRlKA8tLEI-1" target="pWjHUEASfxYRlKA8tLEI-71" edge="1">
          <mxGeometry width="50" height="50" relative="1" as="geometry">
            <mxPoint x="970" y="255" as="sourcePoint" />
            <mxPoint x="1125" y="253" as="targetPoint" />
          </mxGeometry>
        </mxCell>
        <mxCell id="pWjHUEASfxYRlKA8tLEI-74" value="" style="endArrow=none;html=1;rounded=0;exitX=0.75;exitY=0;exitDx=0;exitDy=0;entryX=0.5;entryY=1;entryDx=0;entryDy=0;" parent="1" source="pWjHUEASfxYRlKA8tLEI-1" target="pWjHUEASfxYRlKA8tLEI-72" edge="1">
          <mxGeometry width="50" height="50" relative="1" as="geometry">
            <mxPoint x="865" y="180" as="sourcePoint" />
            <mxPoint x="830" y="110" as="targetPoint" />
          </mxGeometry>
        </mxCell>
        <mxCell id="pWjHUEASfxYRlKA8tLEI-75" value="" style="endArrow=none;html=1;rounded=0;exitX=0.5;exitY=0;exitDx=0;exitDy=0;entryX=0.164;entryY=1.067;entryDx=0;entryDy=0;entryPerimeter=0;" parent="1" source="pWjHUEASfxYRlKA8tLEI-71" target="p8ZUOmN2BJG1ooWffucN-48" edge="1">
          <mxGeometry width="50" height="50" relative="1" as="geometry">
            <mxPoint x="865" y="180" as="sourcePoint" />
            <mxPoint x="855" y="-20" as="targetPoint" />
          </mxGeometry>
        </mxCell>
        <mxCell id="pWjHUEASfxYRlKA8tLEI-76" value="" style="endArrow=none;html=1;rounded=0;exitX=0.5;exitY=0;exitDx=0;exitDy=0;entryX=0.757;entryY=0.996;entryDx=0;entryDy=0;entryPerimeter=0;" parent="1" source="pWjHUEASfxYRlKA8tLEI-72" target="p8ZUOmN2BJG1ooWffucN-48" edge="1">
          <mxGeometry width="50" height="50" relative="1" as="geometry">
            <mxPoint x="830" y="60" as="sourcePoint" />
            <mxPoint x="865" y="-10" as="targetPoint" />
          </mxGeometry>
        </mxCell>
        <mxCell id="pWjHUEASfxYRlKA8tLEI-77" value="0,N" style="text;html=1;align=center;verticalAlign=middle;resizable=0;points=[];autosize=1;strokeColor=none;fillColor=none;" parent="1" vertex="1">
          <mxGeometry x="780" y="108" width="40" height="30" as="geometry" />
        </mxCell>
        <mxCell id="pWjHUEASfxYRlKA8tLEI-78" value="0,N" style="text;html=1;align=center;verticalAlign=middle;resizable=0;points=[];autosize=1;strokeColor=none;fillColor=none;" parent="1" vertex="1">
          <mxGeometry x="780" y="8" width="40" height="30" as="geometry" />
        </mxCell>
        <mxCell id="pWjHUEASfxYRlKA8tLEI-79" value="1,N" style="text;html=1;align=center;verticalAlign=middle;resizable=0;points=[];autosize=1;strokeColor=none;fillColor=none;" parent="1" vertex="1">
          <mxGeometry x="950" y="8" width="40" height="30" as="geometry" />
        </mxCell>
        <mxCell id="pWjHUEASfxYRlKA8tLEI-80" value="0,N" style="text;html=1;align=center;verticalAlign=middle;resizable=0;points=[];autosize=1;strokeColor=none;fillColor=none;" parent="1" vertex="1">
          <mxGeometry x="960" y="120" width="40" height="30" as="geometry" />
        </mxCell>
        <mxCell id="pWjHUEASfxYRlKA8tLEI-81" value="Sujets" style="swimlane;fontStyle=0;childLayout=stackLayout;horizontal=1;startSize=30;horizontalStack=0;resizeParent=1;resizeParentMax=0;resizeLast=0;collapsible=1;marginBottom=0;whiteSpace=wrap;html=1;fillColor=#f8cecc;gradientColor=#ea6b66;strokeColor=#b85450;" parent="1" vertex="1">
          <mxGeometry x="480" y="300" width="140" height="180" as="geometry" />
        </mxCell>
        <mxCell id="pWjHUEASfxYRlKA8tLEI-82" value="id_sujet" style="text;strokeColor=none;fillColor=none;align=left;verticalAlign=middle;spacingLeft=4;spacingRight=4;overflow=hidden;points=[[0,0.5],[1,0.5]];portConstraint=eastwest;rotatable=0;whiteSpace=wrap;html=1;" parent="pWjHUEASfxYRlKA8tLEI-81" vertex="1">
          <mxGeometry y="30" width="140" height="30" as="geometry" />
        </mxCell>
        <mxCell id="pWjHUEASfxYRlKA8tLEI-83" value="message" style="text;strokeColor=none;fillColor=none;align=left;verticalAlign=middle;spacingLeft=4;spacingRight=4;overflow=hidden;points=[[0,0.5],[1,0.5]];portConstraint=eastwest;rotatable=0;whiteSpace=wrap;html=1;" parent="pWjHUEASfxYRlKA8tLEI-81" vertex="1">
          <mxGeometry y="60" width="140" height="30" as="geometry" />
        </mxCell>
        <mxCell id="pWjHUEASfxYRlKA8tLEI-84" value="pj" style="text;strokeColor=none;fillColor=none;align=left;verticalAlign=middle;spacingLeft=4;spacingRight=4;overflow=hidden;points=[[0,0.5],[1,0.5]];portConstraint=eastwest;rotatable=0;whiteSpace=wrap;html=1;" parent="pWjHUEASfxYRlKA8tLEI-81" vertex="1">
          <mxGeometry y="90" width="140" height="30" as="geometry" />
        </mxCell>
        <mxCell id="pWjHUEASfxYRlKA8tLEI-94" value="date_creation" style="text;strokeColor=none;fillColor=none;align=left;verticalAlign=middle;spacingLeft=4;spacingRight=4;overflow=hidden;points=[[0,0.5],[1,0.5]];portConstraint=eastwest;rotatable=0;whiteSpace=wrap;html=1;" parent="pWjHUEASfxYRlKA8tLEI-81" vertex="1">
          <mxGeometry y="120" width="140" height="30" as="geometry" />
        </mxCell>
        <mxCell id="p8ZUOmN2BJG1ooWffucN-12" value="titre" style="text;strokeColor=none;fillColor=none;align=left;verticalAlign=middle;spacingLeft=4;spacingRight=4;overflow=hidden;points=[[0,0.5],[1,0.5]];portConstraint=eastwest;rotatable=0;whiteSpace=wrap;html=1;" parent="pWjHUEASfxYRlKA8tLEI-81" vertex="1">
          <mxGeometry y="150" width="140" height="30" as="geometry" />
        </mxCell>
        <mxCell id="pWjHUEASfxYRlKA8tLEI-85" value="poste" style="ellipse;whiteSpace=wrap;html=1;fillColor=#f5f5f5;gradientColor=#b3b3b3;strokeColor=#666666;" parent="1" vertex="1">
          <mxGeometry x="670" y="335" width="100" height="50" as="geometry" />
        </mxCell>
        <mxCell id="pWjHUEASfxYRlKA8tLEI-86" value="" style="endArrow=none;html=1;rounded=0;exitX=0;exitY=0.5;exitDx=0;exitDy=0;entryX=1;entryY=0.5;entryDx=0;entryDy=0;" parent="1" source="pWjHUEASfxYRlKA8tLEI-8" target="pWjHUEASfxYRlKA8tLEI-85" edge="1">
          <mxGeometry width="50" height="50" relative="1" as="geometry">
            <mxPoint x="865" y="180" as="sourcePoint" />
            <mxPoint x="830" y="110" as="targetPoint" />
          </mxGeometry>
        </mxCell>
        <mxCell id="pWjHUEASfxYRlKA8tLEI-87" value="" style="endArrow=none;html=1;rounded=0;exitX=0;exitY=0.5;exitDx=0;exitDy=0;entryX=1.001;entryY=1.035;entryDx=0;entryDy=0;entryPerimeter=0;" parent="1" source="pWjHUEASfxYRlKA8tLEI-85" target="pWjHUEASfxYRlKA8tLEI-82" edge="1">
          <mxGeometry width="50" height="50" relative="1" as="geometry">
            <mxPoint x="830" y="390" as="sourcePoint" />
            <mxPoint x="780" y="390" as="targetPoint" />
          </mxGeometry>
        </mxCell>
        <mxCell id="pWjHUEASfxYRlKA8tLEI-88" value="0,N" style="text;html=1;align=center;verticalAlign=middle;resizable=0;points=[];autosize=1;strokeColor=none;fillColor=none;" parent="1" vertex="1">
          <mxGeometry x="770" y="360" width="40" height="30" as="geometry" />
        </mxCell>
        <mxCell id="pWjHUEASfxYRlKA8tLEI-89" value="1,1" style="text;html=1;align=center;verticalAlign=middle;resizable=0;points=[];autosize=1;strokeColor=none;fillColor=none;" parent="1" vertex="1">
          <mxGeometry x="620" y="370" width="40" height="30" as="geometry" />
        </mxCell>
        <mxCell id="pWjHUEASfxYRlKA8tLEI-90" value="Commentaires" style="swimlane;fontStyle=0;childLayout=stackLayout;horizontal=1;startSize=30;horizontalStack=0;resizeParent=1;resizeParentMax=0;resizeLast=0;collapsible=1;marginBottom=0;whiteSpace=wrap;html=1;fillColor=#f8cecc;gradientColor=#ea6b66;strokeColor=#b85450;" parent="1" vertex="1">
          <mxGeometry x="480" y="-20" width="140" height="150" as="geometry" />
        </mxCell>
        <mxCell id="pWjHUEASfxYRlKA8tLEI-91" value="id_commentaire" style="text;strokeColor=none;fillColor=none;align=left;verticalAlign=middle;spacingLeft=4;spacingRight=4;overflow=hidden;points=[[0,0.5],[1,0.5]];portConstraint=eastwest;rotatable=0;whiteSpace=wrap;html=1;" parent="pWjHUEASfxYRlKA8tLEI-90" vertex="1">
          <mxGeometry y="30" width="140" height="30" as="geometry" />
        </mxCell>
        <mxCell id="pWjHUEASfxYRlKA8tLEI-92" value="reponse" style="text;strokeColor=none;fillColor=none;align=left;verticalAlign=middle;spacingLeft=4;spacingRight=4;overflow=hidden;points=[[0,0.5],[1,0.5]];portConstraint=eastwest;rotatable=0;whiteSpace=wrap;html=1;" parent="pWjHUEASfxYRlKA8tLEI-90" vertex="1">
          <mxGeometry y="60" width="140" height="30" as="geometry" />
        </mxCell>
        <mxCell id="pWjHUEASfxYRlKA8tLEI-93" value="date_creation" style="text;strokeColor=none;fillColor=none;align=left;verticalAlign=middle;spacingLeft=4;spacingRight=4;overflow=hidden;points=[[0,0.5],[1,0.5]];portConstraint=eastwest;rotatable=0;whiteSpace=wrap;html=1;" parent="pWjHUEASfxYRlKA8tLEI-90" vertex="1">
          <mxGeometry y="90" width="140" height="30" as="geometry" />
        </mxCell>
        <mxCell id="pWjHUEASfxYRlKA8tLEI-108" value="pj" style="text;strokeColor=none;fillColor=none;align=left;verticalAlign=middle;spacingLeft=4;spacingRight=4;overflow=hidden;points=[[0,0.5],[1,0.5]];portConstraint=eastwest;rotatable=0;whiteSpace=wrap;html=1;" parent="pWjHUEASfxYRlKA8tLEI-90" vertex="1">
          <mxGeometry y="120" width="140" height="30" as="geometry" />
        </mxCell>
        <mxCell id="pWjHUEASfxYRlKA8tLEI-95" value="Flux" style="swimlane;fontStyle=0;childLayout=stackLayout;horizontal=1;startSize=30;horizontalStack=0;resizeParent=1;resizeParentMax=0;resizeLast=0;collapsible=1;marginBottom=0;whiteSpace=wrap;html=1;fillColor=#f8cecc;gradientColor=#ea6b66;strokeColor=#b85450;" parent="1" vertex="1">
          <mxGeometry x="480" y="638" width="140" height="90" as="geometry" />
        </mxCell>
        <mxCell id="pWjHUEASfxYRlKA8tLEI-96" value="id_flux" style="text;strokeColor=none;fillColor=none;align=left;verticalAlign=middle;spacingLeft=4;spacingRight=4;overflow=hidden;points=[[0,0.5],[1,0.5]];portConstraint=eastwest;rotatable=0;whiteSpace=wrap;html=1;" parent="pWjHUEASfxYRlKA8tLEI-95" vertex="1">
          <mxGeometry y="30" width="140" height="30" as="geometry" />
        </mxCell>
        <mxCell id="pWjHUEASfxYRlKA8tLEI-97" value="titre" style="text;strokeColor=none;fillColor=none;align=left;verticalAlign=middle;spacingLeft=4;spacingRight=4;overflow=hidden;points=[[0,0.5],[1,0.5]];portConstraint=eastwest;rotatable=0;whiteSpace=wrap;html=1;" parent="pWjHUEASfxYRlKA8tLEI-95" vertex="1">
          <mxGeometry y="60" width="140" height="30" as="geometry" />
        </mxCell>
        <mxCell id="pWjHUEASfxYRlKA8tLEI-99" value="repond" style="ellipse;whiteSpace=wrap;html=1;fillColor=#f5f5f5;strokeColor=#666666;gradientColor=#b3b3b3;" parent="1" vertex="1">
          <mxGeometry x="500" y="190" width="100" height="50" as="geometry" />
        </mxCell>
        <mxCell id="pWjHUEASfxYRlKA8tLEI-100" value="concerne" style="ellipse;whiteSpace=wrap;html=1;fillColor=#f5f5f5;gradientColor=#b3b3b3;strokeColor=#666666;" parent="1" vertex="1">
          <mxGeometry x="500" y="528" width="100" height="50" as="geometry" />
        </mxCell>
        <mxCell id="pWjHUEASfxYRlKA8tLEI-101" value="" style="endArrow=none;html=1;rounded=0;exitX=0.5;exitY=0;exitDx=0;exitDy=0;entryX=0.5;entryY=1;entryDx=0;entryDy=0;" parent="1" source="pWjHUEASfxYRlKA8tLEI-81" target="pWjHUEASfxYRlKA8tLEI-99" edge="1">
          <mxGeometry width="50" height="50" relative="1" as="geometry">
            <mxPoint x="680" y="390" as="sourcePoint" />
            <mxPoint x="630" y="391" as="targetPoint" />
          </mxGeometry>
        </mxCell>
        <mxCell id="pWjHUEASfxYRlKA8tLEI-105" value="" style="endArrow=none;html=1;rounded=0;exitX=0.5;exitY=0;exitDx=0;exitDy=0;" parent="1" source="pWjHUEASfxYRlKA8tLEI-99" edge="1">
          <mxGeometry width="50" height="50" relative="1" as="geometry">
            <mxPoint x="560" y="330" as="sourcePoint" />
            <mxPoint x="551" y="130" as="targetPoint" />
          </mxGeometry>
        </mxCell>
        <mxCell id="pWjHUEASfxYRlKA8tLEI-106" value="" style="endArrow=none;html=1;rounded=0;exitX=0.5;exitY=0;exitDx=0;exitDy=0;" parent="1" source="pWjHUEASfxYRlKA8tLEI-100" edge="1">
          <mxGeometry width="50" height="50" relative="1" as="geometry">
            <mxPoint x="560" y="330" as="sourcePoint" />
            <mxPoint x="550" y="480" as="targetPoint" />
          </mxGeometry>
        </mxCell>
        <mxCell id="pWjHUEASfxYRlKA8tLEI-107" value="" style="endArrow=none;html=1;rounded=0;exitX=0.5;exitY=0;exitDx=0;exitDy=0;entryX=0.5;entryY=1;entryDx=0;entryDy=0;" parent="1" source="pWjHUEASfxYRlKA8tLEI-95" target="pWjHUEASfxYRlKA8tLEI-100" edge="1">
          <mxGeometry width="50" height="50" relative="1" as="geometry">
            <mxPoint x="560" y="538" as="sourcePoint" />
            <mxPoint x="558" y="479" as="targetPoint" />
          </mxGeometry>
        </mxCell>
        <mxCell id="pWjHUEASfxYRlKA8tLEI-110" value="0,N" style="text;html=1;align=center;verticalAlign=middle;resizable=0;points=[];autosize=1;strokeColor=none;fillColor=none;" parent="1" vertex="1">
          <mxGeometry x="500" y="258" width="40" height="30" as="geometry" />
        </mxCell>
        <mxCell id="pWjHUEASfxYRlKA8tLEI-111" value="1,1" style="text;html=1;align=center;verticalAlign=middle;resizable=0;points=[];autosize=1;strokeColor=none;fillColor=none;" parent="1" vertex="1">
          <mxGeometry x="500" y="148" width="40" height="30" as="geometry" />
        </mxCell>
        <mxCell id="pWjHUEASfxYRlKA8tLEI-112" value="0,N" style="text;html=1;align=center;verticalAlign=middle;resizable=0;points=[];autosize=1;strokeColor=none;fillColor=none;" parent="1" vertex="1">
          <mxGeometry x="500" y="588" width="40" height="30" as="geometry" />
        </mxCell>
        <mxCell id="pWjHUEASfxYRlKA8tLEI-113" value="1,1" style="text;html=1;align=center;verticalAlign=middle;resizable=0;points=[];autosize=1;strokeColor=none;fillColor=none;" parent="1" vertex="1">
          <mxGeometry x="500" y="488" width="40" height="30" as="geometry" />
        </mxCell>
        <mxCell id="kSzCXgYXxVn8dAL6OKQ_-1" value="repond" style="ellipse;whiteSpace=wrap;html=1;fillColor=#f5f5f5;strokeColor=#666666;gradientColor=#b3b3b3;" parent="1" vertex="1">
          <mxGeometry x="500" y="-140" width="100" height="50" as="geometry" />
        </mxCell>
        <mxCell id="kSzCXgYXxVn8dAL6OKQ_-2" value="" style="endArrow=none;html=1;rounded=0;entryX=0.25;entryY=0;entryDx=0;entryDy=0;exitX=0;exitY=0.5;exitDx=0;exitDy=0;" parent="1" source="kSzCXgYXxVn8dAL6OKQ_-1" target="pWjHUEASfxYRlKA8tLEI-90" edge="1">
          <mxGeometry width="50" height="50" relative="1" as="geometry">
            <mxPoint x="450" y="-70" as="sourcePoint" />
            <mxPoint x="590" y="320" as="targetPoint" />
            <Array as="points">
              <mxPoint x="470" y="-70" />
            </Array>
          </mxGeometry>
        </mxCell>
        <mxCell id="kSzCXgYXxVn8dAL6OKQ_-3" value="" style="endArrow=none;html=1;rounded=0;entryX=0.75;entryY=0;entryDx=0;entryDy=0;exitX=1;exitY=0.5;exitDx=0;exitDy=0;" parent="1" source="kSzCXgYXxVn8dAL6OKQ_-1" target="pWjHUEASfxYRlKA8tLEI-90" edge="1">
          <mxGeometry width="50" height="50" relative="1" as="geometry">
            <mxPoint x="510" y="-105" as="sourcePoint" />
            <mxPoint x="525" y="-10" as="targetPoint" />
            <Array as="points">
              <mxPoint x="630" y="-70" />
            </Array>
          </mxGeometry>
        </mxCell>
        <mxCell id="kSzCXgYXxVn8dAL6OKQ_-4" value="1,1" style="text;html=1;align=center;verticalAlign=middle;resizable=0;points=[];autosize=1;strokeColor=none;fillColor=none;" parent="1" vertex="1">
          <mxGeometry x="420" y="-82" width="40" height="30" as="geometry" />
        </mxCell>
        <mxCell id="kSzCXgYXxVn8dAL6OKQ_-5" value="0,N" style="text;html=1;align=center;verticalAlign=middle;resizable=0;points=[];autosize=1;strokeColor=none;fillColor=none;" parent="1" vertex="1">
          <mxGeometry x="640" y="-82" width="40" height="30" as="geometry" />
        </mxCell>
        <mxCell id="p8ZUOmN2BJG1ooWffucN-8" value="TypesEvenements" style="swimlane;fontStyle=0;childLayout=stackLayout;horizontal=1;startSize=30;horizontalStack=0;resizeParent=1;resizeParentMax=0;resizeLast=0;collapsible=1;marginBottom=0;whiteSpace=wrap;html=1;" parent="1" vertex="1">
          <mxGeometry x="1200" y="-210" width="140" height="90" as="geometry" />
        </mxCell>
        <mxCell id="p8ZUOmN2BJG1ooWffucN-9" value="id_type" style="text;strokeColor=none;fillColor=none;align=left;verticalAlign=middle;spacingLeft=4;spacingRight=4;overflow=hidden;points=[[0,0.5],[1,0.5]];portConstraint=eastwest;rotatable=0;whiteSpace=wrap;html=1;" parent="p8ZUOmN2BJG1ooWffucN-8" vertex="1">
          <mxGeometry y="30" width="140" height="30" as="geometry" />
        </mxCell>
        <mxCell id="p8ZUOmN2BJG1ooWffucN-10" value="libelle" style="text;strokeColor=none;fillColor=none;align=left;verticalAlign=middle;spacingLeft=4;spacingRight=4;overflow=hidden;points=[[0,0.5],[1,0.5]];portConstraint=eastwest;rotatable=0;whiteSpace=wrap;html=1;" parent="p8ZUOmN2BJG1ooWffucN-8" vertex="1">
          <mxGeometry y="60" width="140" height="30" as="geometry" />
        </mxCell>
        <mxCell id="p8ZUOmN2BJG1ooWffucN-13" value="correspond" style="ellipse;whiteSpace=wrap;html=1;fillColor=#f5f5f5;gradientColor=#b3b3b3;strokeColor=#666666;" parent="1" vertex="1">
          <mxGeometry x="1040" y="-190" width="100" height="50" as="geometry" />
        </mxCell>
        <mxCell id="p8ZUOmN2BJG1ooWffucN-14" value="" style="endArrow=none;html=1;rounded=0;exitX=0;exitY=0.5;exitDx=0;exitDy=0;entryX=1;entryY=0.5;entryDx=0;entryDy=0;" parent="1" source="p8ZUOmN2BJG1ooWffucN-13" target="pWjHUEASfxYRlKA8tLEI-69" edge="1">
          <mxGeometry width="50" height="50" relative="1" as="geometry">
            <mxPoint x="970" y="215" as="sourcePoint" />
            <mxPoint x="1125" y="253" as="targetPoint" />
          </mxGeometry>
        </mxCell>
        <mxCell id="p8ZUOmN2BJG1ooWffucN-15" value="" style="endArrow=none;html=1;rounded=0;exitX=1;exitY=0.5;exitDx=0;exitDy=0;entryX=0;entryY=0.5;entryDx=0;entryDy=0;" parent="1" source="p8ZUOmN2BJG1ooWffucN-13" target="p8ZUOmN2BJG1ooWffucN-9" edge="1">
          <mxGeometry width="50" height="50" relative="1" as="geometry">
            <mxPoint x="1050" y="-150" as="sourcePoint" />
            <mxPoint x="979" y="-150" as="targetPoint" />
          </mxGeometry>
        </mxCell>
        <mxCell id="p8ZUOmN2BJG1ooWffucN-19" value="0,N" style="text;html=1;align=center;verticalAlign=middle;resizable=0;points=[];autosize=1;strokeColor=none;fillColor=none;" parent="1" vertex="1">
          <mxGeometry x="1150" y="-159" width="40" height="30" as="geometry" />
        </mxCell>
        <mxCell id="p8ZUOmN2BJG1ooWffucN-20" value="1,1" style="text;html=1;align=center;verticalAlign=middle;resizable=0;points=[];autosize=1;strokeColor=none;fillColor=none;" parent="1" vertex="1">
          <mxGeometry x="980" y="-159" width="40" height="30" as="geometry" />
        </mxCell>
        <mxCell id="p8ZUOmN2BJG1ooWffucN-22" value="TypesOffres" style="swimlane;fontStyle=0;childLayout=stackLayout;horizontal=1;startSize=30;horizontalStack=0;resizeParent=1;resizeParentMax=0;resizeLast=0;collapsible=1;marginBottom=0;whiteSpace=wrap;html=1;" parent="1" vertex="1">
          <mxGeometry x="1420" y="-40" width="140" height="90" as="geometry" />
        </mxCell>
        <mxCell id="p8ZUOmN2BJG1ooWffucN-23" value="id_type" style="text;strokeColor=none;fillColor=none;align=left;verticalAlign=middle;spacingLeft=4;spacingRight=4;overflow=hidden;points=[[0,0.5],[1,0.5]];portConstraint=eastwest;rotatable=0;whiteSpace=wrap;html=1;" parent="p8ZUOmN2BJG1ooWffucN-22" vertex="1">
          <mxGeometry y="30" width="140" height="30" as="geometry" />
        </mxCell>
        <mxCell id="p8ZUOmN2BJG1ooWffucN-24" value="libelle" style="text;strokeColor=none;fillColor=none;align=left;verticalAlign=middle;spacingLeft=4;spacingRight=4;overflow=hidden;points=[[0,0.5],[1,0.5]];portConstraint=eastwest;rotatable=0;whiteSpace=wrap;html=1;" parent="p8ZUOmN2BJG1ooWffucN-22" vertex="1">
          <mxGeometry y="60" width="140" height="30" as="geometry" />
        </mxCell>
        <mxCell id="p8ZUOmN2BJG1ooWffucN-25" value="correspond" style="ellipse;whiteSpace=wrap;html=1;fillColor=#f5f5f5;gradientColor=#b3b3b3;strokeColor=#666666;" parent="1" vertex="1">
          <mxGeometry x="1440" y="98" width="100" height="50" as="geometry" />
        </mxCell>
        <mxCell id="p8ZUOmN2BJG1ooWffucN-26" value="" style="endArrow=none;html=1;rounded=0;entryX=0.5;entryY=0;entryDx=0;entryDy=0;exitX=0.5;exitY=1;exitDx=0;exitDy=0;" parent="1" source="p8ZUOmN2BJG1ooWffucN-25" target="pWjHUEASfxYRlKA8tLEI-15" edge="1">
          <mxGeometry width="50" height="50" relative="1" as="geometry">
            <mxPoint x="1220" y="260" as="sourcePoint" />
            <mxPoint x="1431" y="258" as="targetPoint" />
          </mxGeometry>
        </mxCell>
        <mxCell id="p8ZUOmN2BJG1ooWffucN-27" value="" style="endArrow=none;html=1;rounded=0;entryX=0.5;entryY=0;entryDx=0;entryDy=0;" parent="1" target="p8ZUOmN2BJG1ooWffucN-25" edge="1">
          <mxGeometry width="50" height="50" relative="1" as="geometry">
            <mxPoint x="1490" y="50" as="sourcePoint" />
            <mxPoint x="1500" y="220" as="targetPoint" />
          </mxGeometry>
        </mxCell>
        <mxCell id="p8ZUOmN2BJG1ooWffucN-29" value="0,N" style="text;html=1;align=center;verticalAlign=middle;resizable=0;points=[];autosize=1;strokeColor=none;fillColor=none;" parent="1" vertex="1">
          <mxGeometry x="1440" y="60" width="40" height="30" as="geometry" />
        </mxCell>
        <mxCell id="p8ZUOmN2BJG1ooWffucN-30" value="1,1" style="text;html=1;align=center;verticalAlign=middle;resizable=0;points=[];autosize=1;strokeColor=none;fillColor=none;" parent="1" vertex="1">
          <mxGeometry x="1440" y="160" width="40" height="30" as="geometry" />
        </mxCell>
        <mxCell id="p8ZUOmN2BJG1ooWffucN-33" value="contient" style="ellipse;whiteSpace=wrap;html=1;fillColor=#f5f5f5;gradientColor=#b3b3b3;strokeColor=#666666;" parent="1" vertex="1">
          <mxGeometry x="1410" y="895" width="100" height="50" as="geometry" />
        </mxCell>
        <mxCell id="p8ZUOmN2BJG1ooWffucN-34" value="" style="endArrow=none;html=1;rounded=0;exitX=0.5;exitY=0;exitDx=0;exitDy=0;entryX=0.331;entryY=0.868;entryDx=0;entryDy=0;entryPerimeter=0;" parent="1" source="p8ZUOmN2BJG1ooWffucN-33" target="p8ZUOmN2BJG1ooWffucN-21" edge="1">
          <mxGeometry width="50" height="50" relative="1" as="geometry">
            <mxPoint x="970" y="545" as="sourcePoint" />
            <mxPoint x="1151" y="545" as="targetPoint" />
          </mxGeometry>
        </mxCell>
        <mxCell id="p8ZUOmN2BJG1ooWffucN-35" value="" style="endArrow=none;html=1;rounded=0;exitX=0;exitY=0.5;exitDx=0;exitDy=0;entryX=0.987;entryY=1.028;entryDx=0;entryDy=0;entryPerimeter=0;" parent="1" source="p8ZUOmN2BJG1ooWffucN-33" target="pWjHUEASfxYRlKA8tLEI-38" edge="1">
          <mxGeometry width="50" height="50" relative="1" as="geometry">
            <mxPoint x="1470" y="905" as="sourcePoint" />
            <mxPoint x="1476" y="516" as="targetPoint" />
          </mxGeometry>
        </mxCell>
        <mxCell id="p8ZUOmN2BJG1ooWffucN-37" value="1,N" style="text;html=1;align=center;verticalAlign=middle;resizable=0;points=[];autosize=1;strokeColor=none;fillColor=none;" parent="1" vertex="1">
          <mxGeometry x="1470" y="668" width="40" height="30" as="geometry" />
        </mxCell>
        <mxCell id="p8ZUOmN2BJG1ooWffucN-38" value="0,N" style="text;html=1;align=center;verticalAlign=middle;resizable=0;points=[];autosize=1;strokeColor=none;fillColor=none;" parent="1" vertex="1">
          <mxGeometry x="1140" y="930" width="40" height="30" as="geometry" />
        </mxCell>
        <mxCell id="p8ZUOmN2BJG1ooWffucN-43" value="ecrcit" style="ellipse;whiteSpace=wrap;html=1;fillColor=#f5f5f5;gradientColor=#b3b3b3;strokeColor=#666666;" parent="1" vertex="1">
          <mxGeometry x="660" y="170" width="100" height="50" as="geometry" />
        </mxCell>
        <mxCell id="p8ZUOmN2BJG1ooWffucN-46" value="1,1" style="text;html=1;align=center;verticalAlign=middle;resizable=0;points=[];autosize=1;strokeColor=none;fillColor=none;" parent="1" vertex="1">
          <mxGeometry x="660" y="108" width="40" height="30" as="geometry" />
        </mxCell>
        <mxCell id="p8ZUOmN2BJG1ooWffucN-47" value="0,N" style="text;html=1;align=center;verticalAlign=middle;resizable=0;points=[];autosize=1;strokeColor=none;fillColor=none;" parent="1" vertex="1">
          <mxGeometry x="760" y="200" width="40" height="30" as="geometry" />
        </mxCell>
        <mxCell id="p8ZUOmN2BJG1ooWffucN-49" value="" style="endArrow=none;html=1;rounded=0;entryX=0.997;entryY=0.251;entryDx=0;entryDy=0;entryPerimeter=0;" parent="1" target="pWjHUEASfxYRlKA8tLEI-108" edge="1">
          <mxGeometry width="50" height="50" relative="1" as="geometry">
            <mxPoint x="710" y="110" as="sourcePoint" />
            <mxPoint x="561" y="140" as="targetPoint" />
          </mxGeometry>
        </mxCell>
        <mxCell id="p8ZUOmN2BJG1ooWffucN-50" value="" style="endArrow=none;html=1;rounded=0;exitX=0.5;exitY=0;exitDx=0;exitDy=0;" parent="1" source="p8ZUOmN2BJG1ooWffucN-43" edge="1">
          <mxGeometry width="50" height="50" relative="1" as="geometry">
            <mxPoint x="720" y="125" as="sourcePoint" />
            <mxPoint x="710" y="110" as="targetPoint" />
          </mxGeometry>
        </mxCell>
        <mxCell id="p8ZUOmN2BJG1ooWffucN-51" value="" style="endArrow=none;html=1;rounded=0;exitX=0.013;exitY=0.238;exitDx=0;exitDy=0;exitPerimeter=0;" parent="1" source="pWjHUEASfxYRlKA8tLEI-3" edge="1">
          <mxGeometry width="50" height="50" relative="1" as="geometry">
            <mxPoint x="720" y="120" as="sourcePoint" />
            <mxPoint x="760" y="197" as="targetPoint" />
          </mxGeometry>
        </mxCell>
      </root>
    </mxGraphModel>
  </diagram>
</mxfile>
